<svg aria-hidden="true" style="position: absolute; width: 0; height: 0; overflow: hidden;" version="1.1" xmlns="http://www.w3.org/2000/svg" xmlns:xlink="http://www.w3.org/1999/xlink">
<defs>
<symbol id="heart" viewBox="0 0 16 15">
<path d="M14.7307 1.97945C13.9025 1.09596 12.766 0.609375 11.5304 0.609375C10.6068 0.609375 9.761 0.896557 9.01634 1.46287C8.64062 1.7487 8.30016 2.09846 8 2.50661C7.69994 2.09855 7.35938 1.7487 6.98353 1.46287C6.239 0.896557 5.39319 0.609375 4.46959 0.609375C3.234 0.609375 2.09741 1.09596 1.26916 1.97945C0.450812 2.85262 0 4.04551 0 5.3385C0 6.6693 0.504281 7.88755 1.58691 9.17237C2.55541 10.3217 3.94737 11.4884 5.55931 12.8394C6.10975 13.3008 6.73366 13.8237 7.38147 14.3808C7.55264 14.5282 7.77246 14.6095 8 14.6094C8.22766 14.6094 8.44738 14.5282 8.61828 14.381C9.26609 13.8238 9.89038 13.3006 10.441 12.839C12.0528 11.4882 13.4447 10.3217 14.4132 9.17225C15.4958 7.88758 16 6.66933 16 5.33838C16 4.04551 15.5492 2.85262 14.7307 1.97945Z" />
</symbol>
<symbol id="face" viewBox="0 0 19 19">
<path d="M16.4647 7.55859C15.8788 7.55859 15.3632 7.80078 14.9843 8.17969C13.5897 7.21484 11.7108 6.59375 9.6288 6.52734L10.7108 1.65234L14.1561 2.42578C14.1561 3.26953 14.8436 3.95703 15.6874 3.95703C16.5468 3.95703 17.2382 3.25 17.2382 2.40625C17.2382 1.5625 16.5507 0.855469 15.6874 0.855469C15.0858 0.855469 14.5663 1.21875 14.3085 1.71484L10.5038 0.871094C10.3124 0.820312 10.1249 0.957031 10.0741 1.14844L8.88661 6.52344C6.8202 6.60938 4.96083 7.23047 3.56239 8.19531C3.18348 7.80078 2.64833 7.55859 2.06239 7.55859C-0.109485 7.55859 -0.820423 10.4727 1.16786 11.4688C1.09755 11.7773 1.0663 12.1055 1.0663 12.4336C1.0663 15.707 4.7538 18.3594 9.28114 18.3594C13.828 18.3594 17.5155 15.707 17.5155 12.4336C17.5155 12.1055 17.4804 11.7617 17.3944 11.4531C19.3436 10.4531 18.6249 7.55859 16.4647 7.55859ZM4.3202 11.6758C4.3202 10.8164 5.0077 10.125 5.87098 10.125C6.71473 10.125 7.40223 10.8125 7.40223 11.6758C7.40223 12.5195 6.71473 13.207 5.87098 13.207C5.01161 13.2109 4.3202 12.5195 4.3202 11.6758ZM12.6913 15.3281C11.2694 16.75 7.2577 16.75 5.83583 15.3281C5.67958 15.1914 5.67958 14.9492 5.83583 14.793C5.97255 14.6563 6.21473 14.6563 6.35145 14.793C7.43739 15.9063 11.039 15.9258 12.1718 14.793C12.3085 14.6563 12.5507 14.6563 12.6874 14.793C12.8475 14.9492 12.8475 15.1914 12.6913 15.3281ZM12.66 13.2109C11.8163 13.2109 11.1288 12.5234 11.1288 11.6797C11.1288 10.8203 11.8163 10.1289 12.66 10.1289C13.5194 10.1289 14.2108 10.8164 14.2108 11.6797C14.2069 12.5195 13.5194 13.2109 12.66 13.2109Z"/>
</symbol>
<symbol id="pinterest" viewBox="0 0 15 21">
 <path d="M7.96875 0.609375C3.96094 0.609375 0 3.28125 0 7.60547C0 10.3555 1.54688 11.918 2.48438 11.918C2.87109 11.918 3.09375 10.8398 3.09375 10.5352C3.09375 10.1719 2.16797 9.39844 2.16797 7.88672C2.16797 4.74609 4.55859 2.51953 7.65234 2.51953C10.3125 2.51953 12.2812 4.03125 12.2812 6.80859C12.2812 8.88281 11.4492 12.7734 8.75391 12.7734C7.78125 12.7734 6.94922 12.0703 6.94922 11.0625C6.94922 9.58594 7.98047 8.15625 7.98047 6.63281C7.98047 4.04688 4.3125 4.51563 4.3125 7.64063C4.3125 8.29688 4.39453 9.02344 4.6875 9.62109C4.14844 11.9414 3.04688 15.3984 3.04688 17.7891C3.04688 18.5273 3.15234 19.2539 3.22266 19.9922C3.35547 20.1406 3.28906 20.125 3.49219 20.0508C5.46094 17.3555 5.39062 16.8281 6.28125 13.3008C6.76172 14.2148 8.00391 14.707 8.98828 14.707C13.1367 14.707 15 10.6641 15 7.01953C15 3.14063 11.6484 0.609375 7.96875 0.609375Z"/>
</symbol>
<symbol id="telegram" viewBox="0 0 20 16">
 <path fill-rule="evenodd" clip-rule="evenodd" d="M1.83987 6.88623C6.93298 4.60933 10.3375 3.13768 12.0261 2.41574C16.8741 0.360972 17.8818 0 18.5355 0C18.6716 0 18.9985 0.0277673 19.2164 0.19437C19.3798 0.333205 19.4342 0.527574 19.4615 0.666409C19.4887 0.805245 19.516 1.11068 19.4887 1.36059C19.2164 4.16506 18.0997 11.0235 17.5005 14.1612C17.2554 15.494 16.7651 15.9383 16.3021 15.9938C15.2944 16.0771 14.5046 15.2997 13.5241 14.661C11.9989 13.6336 11.1273 12.995 9.62933 11.9954C7.91347 10.8292 9.03014 10.1905 10.0106 9.16313C10.2558 8.88546 14.7497 4.74817 14.8314 4.35943C14.8314 4.3039 14.8586 4.13729 14.7497 4.05399C14.6407 3.97069 14.5046 3.99846 14.3956 4.02623C14.2322 4.05399 11.781 5.72002 7.01469 8.99653C6.30655 9.49634 5.68013 9.71848 5.10818 9.71848C4.48175 9.71848 3.28337 9.3575 2.38459 9.05207C1.29515 8.69109 0.423604 8.49672 0.505312 7.88585C0.58702 7.55264 1.02279 7.21944 1.83987 6.88623Z" />
</symbol>
<symbol id="moon" viewBox="0 0 17 17">
 <path d="M16.3113 8.891C16.1683 10.4367 15.5881 11.9098 14.6385 13.1378C13.6889 14.3658 12.4093 15.298 10.9493 15.8253C9.48924 16.3526 7.90925 16.4532 6.39414 16.1153C4.87903 15.7775 3.49147 15.0151 2.39382 13.9174C1.29616 12.8198 0.533801 11.4322 0.195936 9.91713C-0.141929 8.40202 -0.0413241 6.82202 0.485978 5.36201C1.01328 3.90199 1.94547 2.62233 3.17349 1.67276C4.4015 0.723184 5.87454 0.14297 7.42026 0C6.51482 1.22441 6.079 2.73318 6.19209 4.2518C6.30518 5.77043 6.95966 7.198 8.03646 8.2748C9.11326 9.35161 10.5408 10.0061 12.0595 10.1192C13.5781 10.2323 15.0869 9.79644 16.3113 8.891Z"/>
</symbol>
<symbol id="clock" viewBox="0 0 12 12">
<path d="M7 3.25C7 3.10938 6.89063 3 6.75 3H6.25C6.10938 3 6 3.10938 6 3.25V6H4.25C4.10938 6 4 6.10938 4 6.25V6.75C4 6.89063 4.10938 7 4.25 7H6.75C6.89063 7 7 6.89063 7 6.75V3.25ZM10.25 6C10.25 8.34375 8.34375 10.25 6 10.25C3.65625 10.25 1.75 8.34375 1.75 6C1.75 3.65625 3.65625 1.75 6 1.75C8.34375 1.75 10.25 3.65625 10.25 6ZM12 6C12 2.6875 9.3125 0 6 0C2.6875 0 0 2.6875 0 6C0 9.3125 2.6875 12 6 12C9.3125 12 12 9.3125 12 6Z"/>
</symbol>
<symbol id="person" viewBox="0 0 10 13">
<path d="M10 10.1484C10 8.09375 9.49219 5.71875 7.44531 5.71875C6.8125 6.33594 5.95312 6.71875 5 6.71875C4.04688 6.71875 3.1875 6.33594 2.55469 5.71875C0.507812 5.71875 0 8.09375 0 10.1484C0 11.2891 0.75 12.2188 1.66406 12.2188H8.33594C9.25 12.2188 10 11.2891 10 10.1484ZM8 3.21875C8 1.5625 6.65625 0.21875 5 0.21875C3.34375 0.21875 2 1.5625 2 3.21875C2 4.875 3.34375 6.21875 5 6.21875C6.65625 6.21875 8 4.875 8 3.21875Z"/>
</symbol>
<symbol id="burger" viewBox="0 0 26 22">
 <path d="M25.43 18.9222C25.43 18.462 25.0487 18.0807 24.5886 18.0807H0.841434C0.381275 18.0807 0 18.462 0 18.9222V20.605C0 21.0652 0.381275 21.4465 0.841434 21.4465H24.5886C25.0487 21.4465 25.43 21.0652 25.43 20.605V18.9222ZM25.43 9.8818C25.43 9.42164 25.0487 9.04037 24.5886 9.04037H0.841434C0.381275 9.04037 0 9.42164 0 9.8818V11.5647C0 12.0248 0.381275 12.4061 0.841434 12.4061H24.5886C25.0487 12.4061 25.43 12.0248 25.43 11.5647V9.8818ZM25.43 0.841433C25.43 0.381274 25.0487 0 24.5886 0H0.841434C0.381275 0 0 0.381274 0 0.841433V2.5243C0 2.98446 0.381275 3.36573 0.841434 3.36573H24.5886C25.0487 3.36573 25.43 2.98446 25.43 2.5243V0.841433Z"/>
</symbol>
<symbol id="banner-burger" viewBox="0 0 20 16">
<path d="M20 13.6618C20 13.2999 19.7001 13.0001 19.3382 13.0001H0.661765C0.299862 13.0001 0 13.2999 0 13.6618V14.9854C0 15.3473 0.299862 15.6471 0.661765 15.6471H19.3382C19.7001 15.6471 20 15.3473 20 14.9854V13.6618ZM20 7.33832C20 6.97642 19.7001 6.67656 19.3382 6.67656H0.661765C0.299862 6.67656 0 6.97642 0 7.33832V8.66185C0 9.02375 0.299862 9.32362 0.661765 9.32362H19.3382C19.7001 9.32362 20 9.02375 20 8.66185V7.33832ZM20 1.01479C20 0.652889 19.7001 0.353027 19.3382 0.353027H0.661765C0.299862 0.353027 0 0.652889 0 1.01479V2.33832C0 2.70022 0.299862 3.00009 0.661765 3.00009H19.3382C19.7001 3.00009 20 2.70022 20 2.33832V1.01479Z"/>
</symbol>
<symbol id="ios" viewBox="0 0 12 13">
<path d="M11.0547 9.49219C10.5938 9.35156 10.1797 9.02344 9.82031 8.50781C9.46094 7.99219 9.28125 7.40625 9.28125 6.76563C9.28125 6.17188 9.45312 5.63281 9.78906 5.14844C9.97656 4.875 10.2734 4.57031 10.6797 4.22656C10.4141 3.89844 10.1406 3.63281 9.86719 3.44531C9.38281 3.10938 8.82812 2.9375 8.20312 2.9375C7.82031 2.9375 7.36719 3.03125 6.85156 3.20313C6.33594 3.38281 5.96094 3.46875 5.73438 3.46875C5.55469 3.46875 5.19531 3.39063 4.65625 3.23438C4.10938 3.07813 3.65625 3 3.27344 3C2.375 3 1.64062 3.375 1.05469 4.125C0.46875 4.88281 0.171875 5.85156 0.171875 7.04688C0.171875 8.32813 0.5625 9.63281 1.32031 10.9766C2.09375 12.3203 2.86719 13 3.67188 13C3.92969 13 4.27344 12.9141 4.70312 12.7344C5.125 12.5625 5.5 12.4766 5.8125 12.4766C6.13281 12.4766 6.53125 12.5547 6.99219 12.7266C7.46094 12.8906 7.82031 12.9766 8.08594 12.9766C8.75 12.9766 9.42188 12.4688 10.0938 11.4453C10.5469 10.7656 10.8594 10.1094 11.0547 9.49219ZM8.11719 0.328126C8.11719 0.273438 8.10938 0.226563 8.10938 0.171876C8.10156 0.125 8.08594 0.0703129 8.07031 0C7.16406 0.210938 6.50781 0.59375 6.11719 1.15625C5.72656 1.71875 5.52344 2.39063 5.50781 3.16406C5.875 3.13281 6.14062 3.08594 6.32031 3.03125C6.60156 2.9375 6.88281 2.75 7.16406 2.46875C7.49219 2.14063 7.73438 1.78125 7.89063 1.39063C8.03906 1.00781 8.11719 0.648438 8.11719 0.328126Z"/>
</symbol>
<symbol id="android" viewBox="0 0 11 13">
<path d="M3.85156 2.77349C3.6875 2.77349 3.55469 2.63286 3.55469 2.4688C3.55469 2.30474 3.6875 2.16411 3.85156 2.16411C4.02344 2.16411 4.15625 2.30474 4.15625 2.4688C4.15625 2.63286 4.02344 2.77349 3.85156 2.77349ZM7.14844 2.77349C6.97656 2.77349 6.84375 2.63286 6.84375 2.4688C6.84375 2.30474 6.97656 2.16411 7.14844 2.16411C7.3125 2.16411 7.44531 2.30474 7.44531 2.4688C7.44531 2.63286 7.3125 2.77349 7.14844 2.77349ZM0.804688 4.21099C0.359375 4.21099 0 4.57036 0 5.00786V8.36724C0 8.81255 0.359375 9.17192 0.804688 9.17192C1.25 9.17192 1.60156 8.81255 1.60156 8.36724V5.00786C1.60156 4.57036 1.24219 4.21099 0.804688 4.21099ZM9.08594 4.35942H1.91406V9.56255C1.91406 10.0391 2.29688 10.4219 2.77344 10.4219H3.35156L3.35938 12.1954C3.35938 12.6407 3.71875 13 4.15625 13C4.60156 13 4.96094 12.6407 4.96094 12.1954V10.4219H6.03906V12.1954C6.03906 12.6407 6.39844 13 6.84375 13C7.28906 13 7.64844 12.6407 7.64844 12.1954V10.4219H8.23438C8.70313 10.4219 9.08594 10.0391 9.08594 9.56255V4.35942ZM7.27344 1.19536L7.82813 0.171923C7.85938 0.117236 7.84375 0.0469239 7.78906 0.015674C7.73438 -0.00776361 7.66406 0.00786091 7.63281 0.0625484L7.07031 1.0938C6.59375 0.882861 6.0625 0.765674 5.5 0.765674C4.9375 0.765674 4.40625 0.882861 3.92969 1.0938L3.36719 0.0625484C3.33594 0.00786091 3.26562 -0.00776361 3.21094 0.015674C3.15625 0.0469239 3.14063 0.117236 3.17188 0.171923L3.72656 1.19536C2.625 1.75786 1.88281 2.83599 1.88281 4.07817H9.10938C9.10938 2.83599 8.36719 1.75786 7.27344 1.19536ZM11 5.00786C11 4.56255 10.6406 4.21099 10.1953 4.21099C9.75781 4.21099 9.39844 4.56255 9.39844 5.00786V8.36724C9.39844 8.81255 9.75781 9.17192 10.1953 9.17192C10.6406 9.17192 11 8.81255 11 8.36724V5.00786Z"/>
</symbol>
<symbol id="filter" viewBox="0 0 32 32">
<path d="M29.625 2.146c-0.208-0.479-0.687-0.813-1.229-0.813h-26.667c-0.542 0-1.021 0.333-1.229 0.813-0.208 0.5-0.104 1.083 0.292 1.458l10.271 10.271v10.125c0 0.354 0.146 0.688 0.396 0.938l5.333 5.333c0.25 0.271 0.583 0.396 0.938 0.396 0.167 0 0.354-0.042 0.521-0.104 0.479-0.208 0.813-0.687 0.813-1.229v-15.458l10.271-10.271c0.396-0.375 0.5-0.958 0.292-1.458z"></path>
</symbol>
<symbol id="phone" viewBox="0 0 9 14">
 <path d="M5.02083 12.2C5.02083 12.6469 4.64583 13.0125 4.1875 13.0125C3.72917 13.0125 3.35417 12.6469 3.35417 12.2C3.35417 11.7531 3.72917 11.3875 4.1875 11.3875C4.64583 11.3875 5.02083 11.7531 5.02083 12.2ZM7.1875 10.575C7.1875 10.7477 7.03125 10.9 6.85417 10.9H1.52083C1.34375 10.9 1.1875 10.7477 1.1875 10.575V3.425C1.1875 3.25234 1.34375 3.1 1.52083 3.1H6.85417C7.03125 3.1 7.1875 3.25234 7.1875 3.425V10.575ZM5.1875 1.9625C5.1875 2.05391 5.11458 2.125 5.02083 2.125H3.35417C3.26042 2.125 3.1875 2.05391 3.1875 1.9625C3.1875 1.87109 3.26042 1.8 3.35417 1.8H5.02083C5.11458 1.8 5.1875 1.87109 5.1875 1.9625ZM8.1875 1.8C8.1875 1.08906 7.58333 0.5 6.85417 0.5H1.52083C0.791667 0.5 0.1875 1.08906 0.1875 1.8V12.2C0.1875 12.9109 0.791667 13.5 1.52083 13.5H6.85417C7.58333 13.5 8.1875 12.9109 8.1875 12.2V1.8Z"  />
</symbol>
<symbol id="search" viewBox="0 0 32 32">
<path d="M22.302 13.714c0 4.643-3.778 8.421-8.421 8.421s-8.421-3.778-8.421-8.421c0-4.643 3.778-8.421 8.421-8.421s8.421 3.778 8.421 8.421zM31.926 29.353c0-0.639-0.263-1.259-0.696-1.692l-6.447-6.447c1.523-2.199 2.331-4.831 2.331-7.5 0-7.312-5.921-13.233-13.233-13.233s-13.233 5.921-13.233 13.233c0 7.312 5.921 13.233 13.233 13.233 2.669 0 5.301-0.808 7.5-2.331l6.447 6.428c0.432 0.451 1.053 0.714 1.692 0.714 1.316 0 2.406-1.090 2.406-2.406z"></path>
</symbol>
<symbol id="close" viewBox="0 0 23 23">
 <path d="M22.7154 21.5337C23.0408 21.2083 23.0408 20.6691 22.7154 20.3437L3.09524 0.723528C2.76986 0.398147 2.23066 0.398147 1.90527 0.723529L0.715307 1.9135C0.389926 2.23888 0.389925 2.77808 0.715307 3.10346L20.3355 22.7236C20.6609 23.049 21.2001 23.049 21.5255 22.7236L22.7154 21.5337Z"  />
  <path d="M1.90495 22.7239C2.23033 23.0493 2.76954 23.0493 3.09492 22.7239L22.7151 3.1037C23.0405 2.77832 23.0405 2.23911 22.7151 1.91373L21.5251 0.723765C21.1998 0.398383 20.6606 0.398383 20.3352 0.723764L0.714984 20.3439C0.389603 20.6693 0.389601 21.2085 0.714983 21.5339L1.90495 22.7239Z"  />
</symbol>
<symbol id="sun" viewBox="0 0 15 15" >
 <path fill-rule="evenodd" clip-rule="evenodd" d="M7.50095 0.25C7.76244 0.25 7.97443 0.461986 7.97443 0.723485V1.95455C7.97443 2.21604 7.76244 2.42803 7.50095 2.42803C7.23945 2.42803 7.02746 2.21604 7.02746 1.95455V0.723485C7.02746 0.461986 7.23945 0.25 7.50095 0.25ZM2.37258 2.37258C2.55749 2.18767 2.85728 2.18767 3.04219 2.37258L3.91719 3.24758C4.1021 3.43249 4.1021 3.73228 3.91719 3.91719C3.73228 4.1021 3.43249 4.1021 3.24758 3.91719L2.37258 3.04219C2.18767 2.85728 2.18767 2.55749 2.37258 2.37258ZM12.6293 2.37258C12.8142 2.55749 12.8142 2.85728 12.6293 3.04219L11.7543 3.91719C11.5694 4.1021 11.2696 4.1021 11.0847 3.91719C10.8998 3.73228 10.8998 3.43249 11.0847 3.24758L11.9597 2.37258C12.1446 2.18767 12.4444 2.18767 12.6293 2.37258ZM5.52646 4.54592C6.11091 4.15541 6.79804 3.94697 7.50095 3.94697C8.44352 3.94697 9.34749 4.32141 10.014 4.98791C10.6805 5.65441 11.0549 6.55837 11.0549 7.50095C11.0549 8.20386 10.8465 8.89098 10.456 9.47543C10.0655 10.0599 9.5104 10.5154 8.861 10.7844C8.21159 11.0534 7.497 11.1238 6.8076 10.9866C6.1182 10.8495 5.48494 10.511 4.98791 10.014C4.49087 9.51696 4.15239 8.8837 4.01526 8.19429C3.87813 7.50489 3.94851 6.7903 4.2175 6.1409C4.48649 5.49149 4.94202 4.93644 5.52646 4.54592ZM0.25 7.50095C0.25 7.23945 0.461986 7.02746 0.723485 7.02746H1.95455C2.21604 7.02746 2.42803 7.23945 2.42803 7.50095C2.42803 7.76244 2.21604 7.97443 1.95455 7.97443H0.723485C0.461986 7.97443 0.25 7.76244 0.25 7.50095ZM12.572 7.50095C12.572 7.23945 12.784 7.02746 13.0455 7.02746H14.2765C14.538 7.02746 14.75 7.23945 14.75 7.50095C14.75 7.76244 14.538 7.97443 14.2765 7.97443H13.0455C12.784 7.97443 12.572 7.76244 12.572 7.50095ZM3.91719 11.0847C4.1021 11.2696 4.1021 11.5694 3.91719 11.7543L3.04219 12.6293C2.85728 12.8142 2.55749 12.8142 2.37258 12.6293C2.18767 12.4444 2.18767 12.1446 2.37258 11.9597L3.24758 11.0847C3.43249 10.8998 3.73228 10.8998 3.91719 11.0847ZM11.0847 11.0847C11.2696 10.8998 11.5694 10.8998 11.7543 11.0847L12.6293 11.9597C12.8142 12.1446 12.8142 12.4444 12.6293 12.6293C12.4444 12.8142 12.1446 12.8142 11.9597 12.6293L11.0847 11.7543C10.8998 11.5694 10.8998 11.2696 11.0847 11.0847ZM7.50095 12.572C7.76244 12.572 7.97443 12.784 7.97443 13.0455V14.2765C7.97443 14.538 7.76244 14.75 7.50095 14.75C7.23945 14.75 7.02746 14.538 7.02746 14.2765V13.0455C7.02746 12.784 7.23945 12.572 7.50095 12.572Z"/>
</symbol>
<symbol id="rss" viewBox="0 0 14 14">
<path d="M0 0V2.54545C6.31909 2.54545 11.4545 7.68091 11.4545 14H14C14 6.26818 7.73182 0 0 0ZM0 4.45455V7C3.86273 7 7 10.1373 7 14H9.54545C9.54545 8.73091 5.26909 4.45455 0 4.45455ZM1.90909 10.1818C1.40277 10.1818 0.917184 10.383 0.55916 10.741C0.201136 11.099 0 11.5846 0 12.0909C0 12.5972 0.201136 13.0828 0.55916 13.4408C0.917184 13.7989 1.40277 14 1.90909 14C2.41541 14 2.901 13.7989 3.25902 13.4408C3.61705 13.0828 3.81818 12.5972 3.81818 12.0909C3.81818 11.5846 3.61705 11.099 3.25902 10.741C2.901 10.383 2.41541 10.1818 1.90909 10.1818Z"/>
</symbol>
<symbol id="google" viewBox="0 0 21 17">
<path
fill-rule="evenodd"
clip-rule="evenodd"
d="M4.29316 0.526238C4.29469 0.386147 4.35201 0.252306 4.45268 0.153779C4.55335 0.0552514 4.68925 -7.79229e-06 4.83086 1.65771e-07H16.1691C16.3106 -0.000110488 16.4463 0.0551797 16.5467 0.153787C16.6471 0.252394 16.7039 0.3863 16.7048 0.526238V3.41882L20.6403 4.46606C20.9038 4.53399 21.0568 4.82411 20.9803 5.10688L18.6128 13.8487L18.6122 16.468C18.6122 16.6091 18.5556 16.7444 18.4547 16.8442C18.3539 16.944 18.2171 17 18.0745 17H2.92316C2.78056 17 2.6438 16.944 2.54296 16.8442C2.44212 16.7444 2.38547 16.6091 2.38547 16.468V11.8966L0.0346768 5.50749C-0.0662439 5.2325 0.0607343 4.93214 0.316759 4.84007L4.29316 3.40817V0.526238ZM12.4554 2.28808L15.9697 3.22323V0.725575H5.02818V3.14349L11.3986 0.849509C11.655 0.757438 11.947 0.906797 12.0484 1.18178L12.4554 2.28808ZM18.4572 4.75895C18.3564 4.65919 18.2196 4.60314 18.077 4.60314H13.3073L12.762 3.12112L20.2198 5.10564L18.6134 11.0371L18.6147 5.13511C18.6147 4.99402 18.558 4.85872 18.4572 4.75895ZM0.792283 5.44118L2.38547 9.77125V5.13511C2.38547 5.02657 2.419 4.92144 2.48039 4.8333L0.792283 5.44118ZM11.4248 1.61241L12.5253 4.60314H3.11952L11.4248 1.61241ZM15.812 9.07206C15.783 9.08395 15.7519 9.09007 15.7206 9.09007H11.1862V7.90952H15.7206C15.7839 7.90952 15.8446 7.93439 15.8893 7.97867C15.9341 8.02295 15.9592 8.08301 15.9592 8.14563V8.85355C15.9593 8.88459 15.9531 8.91534 15.9412 8.94403C15.9292 8.97273 15.9116 8.99881 15.8895 9.02077C15.8673 9.04274 15.841 9.06017 15.812 9.07206ZM15.8892 13.5068C15.8444 13.551 15.7838 13.5758 15.7206 13.5758H11.1862V12.3952H15.7206C15.7839 12.3952 15.8446 12.4201 15.8893 12.4644C15.9341 12.5087 15.9592 12.5687 15.9592 12.6313V13.3401C15.9591 13.4026 15.9339 13.4626 15.8892 13.5068ZM16.6053 11.2634C16.5605 11.3076 16.4998 11.3325 16.4365 11.3325H11.1862V10.152H16.4365C16.4998 10.1521 16.5604 10.177 16.6052 10.2212C16.6499 10.2655 16.6751 10.3255 16.6752 10.3881V11.0964C16.6752 11.159 16.65 11.2191 16.6053 11.2634ZM9.87088 10.8075C9.87021 10.6278 9.85513 10.4484 9.8258 10.271H7.12948V11.335H8.67348C8.54609 11.9836 7.97035 12.4537 7.12948 12.4537C6.19224 12.4537 5.43368 11.6693 5.43368 10.742C5.43368 9.81478 6.1939 9.03033 7.12948 9.03033C7.53782 9.02376 7.9324 9.17632 8.22803 9.45508L9.04532 8.64649C8.52679 8.16519 7.84003 7.90122 7.12907 7.90993C6.75011 7.90542 6.37403 7.97537 6.0226 8.11573C5.67118 8.25609 5.3514 8.46406 5.08182 8.72758C4.81223 8.99111 4.5982 9.30496 4.45212 9.65093C4.30604 9.9969 4.23082 10.3681 4.23082 10.7431C4.23082 11.118 4.30604 11.4892 4.45212 11.8352C4.5982 12.1812 4.81223 12.495 5.08182 12.7585C5.3514 13.0221 5.67118 13.23 6.0226 13.3704C6.37403 13.5107 6.75011 13.5807 7.12907 13.5762C8.78351 13.5762 9.87088 12.4259 9.87088 10.8075Z"/>
</symbol>
<symbol id="youtube" viewBox="0 0 18 12">
<path fill-rule="evenodd"
clip-rule="evenodd"
d="M15.2103 0.358258C15.9451 0.555387 16.5237 1.13623 16.7201 1.87384C17.0769 3.21071 17.0769 6 17.0769 6C17.0769 6 17.0769 8.78926 16.7201 10.1262C16.5237 10.8638 15.9451 11.4446 15.2103 11.6418C13.8786 12 8.53846 12 8.53846 12C8.53846 12 3.19836 12 1.86661 11.6418C1.13189 11.4446 0.553211 10.8638 0.356843 10.1262C0 8.78926 0 6 0 6C0 6 0 3.21071 0.356843 1.87384C0.553211 1.13623 1.13189 0.555387 1.86661 0.358258C3.19836 1.78814e-07 8.53846 0 8.53846 0C8.53846 0 13.8786 1.78814e-07 15.2103 0.358258ZM11.2533 6.00012L6.79004 8.53246V3.46754L11.2533 6.00012Z"/>
</symbol>
<symbol id="instagram" viewBox="0 0 14 14">
<path d="M4.10093 0.0489565C3.35613 0.0840966 2.8475 0.202957 2.40286 0.377678C1.94267 0.557018 1.55263 0.797679 1.16454 1.18716C0.776459 1.57664 0.537477 1.96696 0.359395 2.42784C0.187053 2.87347 0.0702921 3.38251 0.0373917 4.12773C0.0044914 4.87295 -0.00278868 5.11249 0.000851359 7.01342C0.0044914 8.91435 0.0128915 9.15263 0.0490118 9.89939C0.0845722 10.6441 0.203013 11.1525 0.377735 11.5973C0.557357 12.0575 0.797739 12.4474 1.18736 12.8356C1.57699 13.2238 1.96703 13.4623 2.42904 13.6406C2.87424 13.8127 3.38343 13.93 4.12851 13.9626C4.8736 13.9952 5.11342 14.0028 7.0138 13.9992C8.91418 13.9955 9.15344 13.9871 9.90007 13.9517C10.6467 13.9163 11.1525 13.797 11.5974 13.6231C12.0576 13.4431 12.4478 13.2031 12.8358 12.8134C13.2237 12.4236 13.4625 12.033 13.6405 11.5718C13.813 11.1266 13.9302 10.6175 13.9625 9.87293C13.9951 9.12575 14.0028 8.88719 13.9992 6.98654C13.9955 5.08589 13.987 4.84761 13.9516 4.10113C13.9162 3.35465 13.7976 2.84771 13.623 2.40264C13.4431 1.94246 13.203 1.55284 12.8135 1.16434C12.424 0.775839 12.0331 0.537138 11.5721 0.359618C11.1266 0.187277 10.6177 0.0698166 9.87263 0.0376165C9.12754 0.00541635 8.88772 -0.00284368 6.98664 0.000796331C5.08556 0.00443634 4.84756 0.0125564 4.10093 0.0489565ZM4.18269 12.7033C3.50019 12.6736 3.1296 12.5602 2.88264 12.4653C2.5556 12.3393 2.32263 12.187 2.07651 11.9433C1.83039 11.6995 1.67919 11.4657 1.55151 11.1394C1.45561 10.8924 1.3401 10.5223 1.30818 9.83975C1.27346 9.10209 1.26618 8.88061 1.26212 7.01174C1.25806 5.14287 1.2652 4.92167 1.29754 4.18373C1.32666 3.50179 1.44077 3.13079 1.53555 2.88397C1.66155 2.55651 1.81331 2.32396 2.05761 2.07798C2.30191 1.832 2.53502 1.68052 2.86164 1.55284C3.10832 1.45652 3.47849 1.342 4.16071 1.30952C4.89894 1.27452 5.12014 1.26752 6.98874 1.26346C8.85734 1.2594 9.0791 1.2664 9.81761 1.29888C10.4996 1.32856 10.8707 1.44154 11.1172 1.53688C11.4444 1.66288 11.6772 1.81422 11.9232 2.05894C12.1692 2.30366 12.3208 2.53593 12.4485 2.86325C12.545 3.10923 12.6595 3.47925 12.6917 4.16189C12.7268 4.90011 12.7348 5.12145 12.7382 6.9899C12.7415 8.85835 12.735 9.08025 12.7026 9.81791C12.6728 10.5004 12.5597 10.8711 12.4646 11.1184C12.3386 11.4453 12.1867 11.6784 11.9423 11.9242C11.6978 12.1701 11.465 12.3215 11.1382 12.4492C10.8918 12.5454 10.5213 12.6602 9.83959 12.6927C9.10136 12.7274 8.88016 12.7347 7.01086 12.7387C5.14156 12.7428 4.92106 12.7352 4.18283 12.7033M9.88929 3.25875C9.88957 3.4249 9.93911 3.58723 10.0317 3.72522C10.1242 3.86321 10.2556 3.97066 10.4092 4.03397C10.5628 4.09728 10.7318 4.11362 10.8947 4.08091C11.0576 4.04821 11.2071 3.96793 11.3244 3.85023C11.4416 3.73253 11.5214 3.58269 11.5535 3.41968C11.5856 3.25666 11.5686 3.08778 11.5047 2.9344C11.4409 2.78103 11.3329 2.65003 11.1946 2.558C11.0563 2.46596 10.8938 2.41701 10.7276 2.41734C10.5049 2.41779 10.2914 2.50668 10.1342 2.66446C9.97703 2.82225 9.88892 3.03601 9.88929 3.25875ZM3.40583 7.00698C3.40975 8.99219 5.022 10.5979 7.0068 10.5941C8.9916 10.5903 10.5984 8.97819 10.5946 6.99298C10.5908 5.00777 8.97816 3.40169 6.99308 3.40561C5.008 3.40953 3.40205 5.02205 3.40583 7.00698ZM4.66668 7.00446C4.66577 6.54296 4.80172 6.09156 5.05736 5.70733C5.313 5.3231 5.67684 5.0233 6.10286 4.84585C6.52888 4.6684 6.99796 4.62126 7.45077 4.7104C7.90358 4.79953 8.3198 5.02094 8.64677 5.34663C8.97375 5.67231 9.19681 6.08764 9.28774 6.54009C9.37867 6.99255 9.33339 7.4618 9.15763 7.88852C8.98186 8.31524 8.68351 8.68026 8.30029 8.93741C7.91707 9.19457 7.4662 9.33231 7.0047 9.33323C6.69827 9.33387 6.3947 9.27414 6.11135 9.15745C5.828 9.04076 5.57041 8.8694 5.3533 8.65315C5.13619 8.43689 4.9638 8.17999 4.84599 7.8971C4.72818 7.61422 4.66725 7.3109 4.66668 7.00446Z"/>
</symbol>
<symbol id="twitter" viewBox="0 0 15 12">
<path d="M14.3568 1.45598C13.8449 1.67666 13.2888 1.83555 12.715 1.89733C13.3064 1.54425 13.7566 0.988142 13.9684 0.326109C13.4212 0.652711 12.8033 0.891044 12.1589 1.01462C11.6381 0.458515 10.8966 0.114258 10.0757 0.114258C8.49564 0.114258 7.22453 1.39419 7.22453 2.96542C7.22453 3.18609 7.25102 3.40677 7.29515 3.61862C4.92949 3.49504 2.81981 2.36517 1.41629 0.635058C1.16914 1.05876 1.0279 1.54425 1.0279 2.07388C1.0279 3.06251 1.53105 3.9364 2.29901 4.44837C1.83117 4.43072 1.38981 4.29831 1.01025 4.08646C1.01025 4.09529 1.01025 4.11294 1.01025 4.12177C1.01025 5.50762 1.99006 6.65515 3.29647 6.91996C3.05814 6.98175 2.80215 7.01706 2.54617 7.01706C2.3608 7.01706 2.18425 6.99941 2.00771 6.97292C2.36962 8.1028 3.42005 8.92372 4.6735 8.9502C3.69369 9.71816 2.46672 10.1683 1.13383 10.1683C0.895495 10.1683 0.674817 10.1595 0.445312 10.133C1.70759 10.9451 3.2082 11.413 4.82356 11.413C10.0669 11.413 12.9357 7.07002 12.9357 3.30085C12.9357 3.17727 12.9357 3.05369 12.9268 2.93011C13.483 2.52406 13.9684 2.02091 14.3568 1.45598Z"/>
</symbol>
<symbol id="facebook" viewBox="0 0 8 16">
<path d="M7.87589 0.525359C7.63756 0.490051 6.81664 0.419434 5.86331 0.419434C3.86838 0.419434 2.50018 1.63758 2.50018 3.87083V5.79515H0.249268V8.40797H2.50018V15.1077H5.20127V8.40797H7.44336L7.78762 5.79515H5.20127V4.12682C5.20127 3.37652 5.4043 2.85572 6.49003 2.85572H7.87589V0.525359Z"/>
</symbol>
<symbol id="download" viewBox="0 0 17 15">
<path d="M16.0745 10.1156C15.8952 9.93619 15.6771 9.8464 15.4208 9.8464H10.9591L9.65143 11.154C9.27961 11.513 8.84374 11.6925 8.34375 11.6925C7.84386 11.6925 7.40785 11.5132 7.03607 11.154L5.738 9.8464H1.26682C1.01045 9.8464 0.792518 9.93629 0.612977 10.1156C0.43347 10.2951 0.34375 10.513 0.34375 10.7696V13.8464C0.34375 14.1028 0.43347 14.3207 0.612977 14.5002C0.792485 14.6797 1.01042 14.7693 1.26682 14.7693H15.4208C15.6771 14.7693 15.8952 14.6797 16.0745 14.5002C16.2541 14.3207 16.3438 14.1028 16.3438 13.8464V10.7696C16.3438 10.513 16.2541 10.2951 16.0745 10.1156ZM12.4689 13.356C12.347 13.4778 12.2027 13.5387 12.036 13.5387C11.8693 13.5387 11.7253 13.4778 11.6033 13.356C11.4816 13.2342 11.4208 13.09 11.4208 12.9234C11.4208 12.7568 11.4816 12.6124 11.6033 12.4907C11.7253 12.3688 11.8693 12.3078 12.036 12.3078C12.2027 12.3078 12.3469 12.3688 12.4689 12.4907C12.5906 12.6123 12.6515 12.7567 12.6515 12.9234C12.6515 13.09 12.5906 13.2342 12.4689 13.356ZM14.9303 13.356C14.8086 13.4778 14.6643 13.5387 14.4976 13.5387C14.3309 13.5387 14.1868 13.4778 14.0649 13.356C13.9432 13.2342 13.8824 13.09 13.8824 12.9234C13.8824 12.7568 13.9432 12.6124 14.0649 12.4907C14.1867 12.3688 14.3309 12.3078 14.4976 12.3078C14.6643 12.3078 14.8085 12.3688 14.9303 12.4907C15.0521 12.6123 15.1131 12.7567 15.1131 12.9234C15.1131 13.09 15.0522 13.2342 14.9303 13.356Z"/>
<path d="M7.91108 10.279C8.02653 10.4007 8.17074 10.4616 8.34375 10.4616C8.51689 10.4616 8.66094 10.4007 8.77642 10.279L13.0842 5.97126C13.2828 5.78539 13.3278 5.56099 13.2188 5.29816C13.11 5.04823 12.9208 4.92325 12.6515 4.92312H10.1899V0.615411C10.1899 0.448768 10.1289 0.304523 10.0073 0.18274C9.88539 0.0609247 9.74121 0 9.57464 0H7.11286C6.94629 0 6.80204 0.0609247 6.68019 0.18274C6.55844 0.304523 6.49752 0.448735 6.49752 0.615411V4.92315H4.03598C3.76662 4.92315 3.57761 5.04827 3.46863 5.2982C3.35971 5.56092 3.40454 5.78543 3.60331 5.9713L7.91108 10.279Z"/>
</symbol>
</defs>
</svg>
