<svg aria-hidden="true" style="position: absolute; width: 0; height: 0; overflow: hidden;" version="1.1" xmlns="http://www.w3.org/2000/svg" xmlns:xlink="http://www.w3.org/1999/xlink">
<defs>
<symbol id="heart" viewBox="0 0 32 32">
<path d="M29.461 4.959c-1.656-1.767-3.929-2.74-6.401-2.74-1.847 0-3.539 0.574-5.028 1.707-0.751 0.572-1.432 1.271-2.033 2.087-0.6-0.816-1.281-1.516-2.033-2.087-1.489-1.133-3.181-1.707-5.028-1.707-2.471 0-4.744 0.973-6.401 2.74-1.637 1.746-2.538 4.132-2.538 6.718 0 2.662 1.009 5.098 3.174 7.668 1.937 2.299 4.721 4.632 7.945 7.334 1.101 0.923 2.349 1.969 3.644 3.083 0.342 0.295 0.782 0.457 1.237 0.457s0.895-0.162 1.237-0.457c1.296-1.114 2.544-2.161 3.645-3.084 3.224-2.702 6.007-5.035 7.944-7.334 2.165-2.569 3.174-5.006 3.174-7.668 0-2.586-0.902-4.972-2.539-6.718z"></path>
</symbol>
<symbol id="face" viewBox="0 0 32 32">
<path d="M27.73 12.73c-0.987 0-1.855 0.408-2.493 1.046-2.349-1.625-5.513-2.671-9.020-2.783l1.822-8.211 5.803 1.303c0 1.421 1.158 2.579 2.579 2.579 1.447 0 2.612-1.191 2.612-2.612s-1.158-2.612-2.612-2.612c-1.013 0-1.888 0.612-2.322 1.447l-6.408-1.421c-0.322-0.086-0.638 0.145-0.724 0.467l-2 9.053c-3.48 0.145-6.612 1.191-8.967 2.816-0.638-0.664-1.539-1.072-2.526-1.072-3.658 0-4.855 4.908-1.507 6.586-0.118 0.52-0.171 1.072-0.171 1.625 0 5.513 6.211 9.98 13.836 9.98 7.658 0 13.868-4.467 13.868-9.98 0-0.553-0.059-1.132-0.204-1.651 3.283-1.684 2.072-6.559-1.566-6.559zM7.276 19.665c0-1.447 1.158-2.612 2.612-2.612 1.421 0 2.579 1.158 2.579 2.612 0 1.421-1.158 2.579-2.579 2.579-1.447 0.007-2.612-1.158-2.612-2.579zM21.375 25.816c-2.395 2.395-9.151 2.395-11.546 0-0.263-0.23-0.263-0.638 0-0.901 0.23-0.23 0.638-0.23 0.868 0 1.829 1.875 7.895 1.908 9.803 0 0.23-0.23 0.638-0.23 0.868 0 0.27 0.263 0.27 0.671 0.007 0.901zM21.322 22.25c-1.421 0-2.579-1.158-2.579-2.579 0-1.447 1.158-2.612 2.579-2.612 1.447 0 2.612 1.158 2.612 2.612-0.007 1.414-1.164 2.579-2.612 2.579z"></path>
</symbol>
<symbol id="pinterest" viewBox="0 0 32 32">
<path d="M16.714 0.929c-6.107 0-12.143 4.071-12.143 10.661 0 4.191 2.357 6.571 3.786 6.571 0.589 0 0.929-1.643 0.929-2.107 0-0.554-1.411-1.732-1.411-4.036 0-4.786 3.643-8.179 8.357-8.179 4.054 0 7.053 2.304 7.053 6.536 0 3.161-1.268 9.089-5.375 9.089-1.482 0-2.75-1.071-2.75-2.607 0-2.25 1.571-4.429 1.571-6.75 0-3.94-5.589-3.226-5.589 1.536 0 1 0.125 2.107 0.571 3.018-0.821 3.536-2.5 8.804-2.5 12.447 0 1.125 0.161 2.232 0.268 3.357 0.202 0.226 0.101 0.202 0.411 0.089 3-4.107 2.893-4.911 4.25-10.286 0.732 1.393 2.625 2.143 4.125 2.143 6.321 0 9.161-6.161 9.161-11.714 0-5.911-5.107-9.768-10.714-9.768z"></path>
</symbol>
<symbol id="telegram" viewBox="0 0 32 32">
<path d="M2.944 14.218c8.149-3.643 13.596-5.998 16.298-7.153 7.757-3.288 9.369-3.865 10.415-3.865 0.218 0 0.741 0.044 1.089 0.311 0.261 0.222 0.348 0.533 0.392 0.755s0.087 0.711 0.044 1.111c-0.436 4.487-2.222 15.461-3.181 20.481-0.392 2.132-1.177 2.843-1.917 2.932-1.612 0.133-2.876-1.111-4.445-2.132-2.44-1.644-3.835-2.666-6.232-4.265-2.745-1.866-0.959-2.888 0.61-4.532 0.392-0.444 7.583-7.064 7.713-7.686 0-0.089 0.044-0.355-0.131-0.489s-0.392-0.089-0.567-0.044c-0.261 0.044-4.183 2.71-11.809 7.952-1.133 0.8-2.135 1.155-3.050 1.155-1.002 0-2.92-0.578-4.358-1.066-1.743-0.578-3.138-0.889-3.007-1.866 0.131-0.533 0.828-1.066 2.135-1.599z"></path>
</symbol>
<symbol id="moon" viewBox="0 0 17 17">
 <path d="M16.3113 8.891C16.1683 10.4367 15.5881 11.9098 14.6385 13.1378C13.6889 14.3658 12.4093 15.298 10.9493 15.8253C9.48924 16.3526 7.90925 16.4532 6.39414 16.1153C4.87903 15.7775 3.49147 15.0151 2.39382 13.9174C1.29616 12.8198 0.533801 11.4322 0.195936 9.91713C-0.141929 8.40202 -0.0413241 6.82202 0.485978 5.36201C1.01328 3.90199 1.94547 2.62233 3.17349 1.67276C4.4015 0.723184 5.87454 0.14297 7.42026 0C6.51482 1.22441 6.079 2.73318 6.19209 4.2518C6.30518 5.77043 6.95966 7.198 8.03646 8.2748C9.11326 9.35161 10.5408 10.0061 12.0595 10.1192C13.5781 10.2323 15.0869 9.79644 16.3113 8.891Z"/>
</symbol>
<symbol id="clock" viewBox="0 0 12 12">
<path d="M7 3.25C7 3.10938 6.89063 3 6.75 3H6.25C6.10938 3 6 3.10938 6 3.25V6H4.25C4.10938 6 4 6.10938 4 6.25V6.75C4 6.89063 4.10938 7 4.25 7H6.75C6.89063 7 7 6.89063 7 6.75V3.25ZM10.25 6C10.25 8.34375 8.34375 10.25 6 10.25C3.65625 10.25 1.75 8.34375 1.75 6C1.75 3.65625 3.65625 1.75 6 1.75C8.34375 1.75 10.25 3.65625 10.25 6ZM12 6C12 2.6875 9.3125 0 6 0C2.6875 0 0 2.6875 0 6C0 9.3125 2.6875 12 6 12C9.3125 12 12 9.3125 12 6Z"/>
</symbol>
<symbol id="person" viewBox="0 0 10 13">
<path d="M10 10.1484C10 8.09375 9.49219 5.71875 7.44531 5.71875C6.8125 6.33594 5.95312 6.71875 5 6.71875C4.04688 6.71875 3.1875 6.33594 2.55469 5.71875C0.507812 5.71875 0 8.09375 0 10.1484C0 11.2891 0.75 12.2188 1.66406 12.2188H8.33594C9.25 12.2188 10 11.2891 10 10.1484ZM8 3.21875C8 1.5625 6.65625 0.21875 5 0.21875C3.34375 0.21875 2 1.5625 2 3.21875C2 4.875 3.34375 6.21875 5 6.21875C6.65625 6.21875 8 4.875 8 3.21875Z"/>
</symbol>
<symbol id="burger" viewBox="0 0 27 30">
<path d="M26.43 22.9222C26.43 22.462 26.0487 22.0807 25.5886 22.0807H1.84143C1.38127 22.0807 1 22.462 1 22.9222V24.605C1 25.0652 1.38127 25.4465 1.84143 25.4465H25.5886C26.0487 25.4465 26.43 25.0652 26.43 24.605V22.9222ZM26.43 13.8818C26.43 13.4216 26.0487 13.0404 25.5886 13.0404H1.84143C1.38127 13.0404 1 13.4216 1 13.8818V15.5647C1 16.0248 1.38127 16.4061 1.84143 16.4061H25.5886C26.0487 16.4061 26.43 16.0248 26.43 15.5647V13.8818ZM26.43 4.84143C26.43 4.38127 26.0487 4 25.5886 4H1.84143C1.38127 4 1 4.38127 1 4.84143V6.5243C1 6.98446 1.38127 7.36573 1.84143 7.36573H25.5886C26.0487 7.36573 26.43 6.98446 26.43 6.5243V4.84143Z"/>
</symbol>
<symbol id="banner-burger" viewBox="0 0 20 16">
<path d="M20 13.6618C20 13.2999 19.7001 13.0001 19.3382 13.0001H0.661765C0.299862 13.0001 0 13.2999 0 13.6618V14.9854C0 15.3473 0.299862 15.6471 0.661765 15.6471H19.3382C19.7001 15.6471 20 15.3473 20 14.9854V13.6618ZM20 7.33832C20 6.97642 19.7001 6.67656 19.3382 6.67656H0.661765C0.299862 6.67656 0 6.97642 0 7.33832V8.66185C0 9.02375 0.299862 9.32362 0.661765 9.32362H19.3382C19.7001 9.32362 20 9.02375 20 8.66185V7.33832ZM20 1.01479C20 0.652889 19.7001 0.353027 19.3382 0.353027H0.661765C0.299862 0.353027 0 0.652889 0 1.01479V2.33832C0 2.70022 0.299862 3.00009 0.661765 3.00009H19.3382C19.7001 3.00009 20 2.70022 20 2.33832V1.01479Z"/>
</symbol>
<symbol id="ios" viewBox="0 0 32 32">
<path d="M29.25 23.365c-1.135-0.346-2.154-1.154-3.038-2.423s-1.327-2.712-1.327-4.288c0-1.462 0.423-2.788 1.25-3.981 0.462-0.673 1.192-1.423 2.192-2.269-0.654-0.808-1.327-1.462-2-1.923-1.192-0.827-2.558-1.25-4.096-1.25-0.942 0-2.058 0.231-3.327 0.654-1.269 0.442-2.192 0.654-2.75 0.654-0.442 0-1.327-0.192-2.654-0.577-1.346-0.385-2.462-0.577-3.404-0.577-2.212 0-4.019 0.923-5.462 2.769-1.442 1.865-2.173 4.25-2.173 7.192 0 3.154 0.962 6.365 2.827 9.673 1.904 3.308 3.808 4.981 5.788 4.981 0.635 0 1.481-0.211 2.538-0.654 1.038-0.423 1.962-0.635 2.731-0.635 0.788 0 1.769 0.192 2.904 0.615 1.154 0.404 2.038 0.615 2.692 0.615 1.635 0 3.288-1.25 4.942-3.769 1.115-1.673 1.885-3.288 2.365-4.808zM22.019 0.808c0-0.135-0.019-0.25-0.019-0.385-0.019-0.115-0.058-0.25-0.096-0.423-2.231 0.519-3.846 1.462-4.808 2.846s-1.462 3.038-1.5 4.942c0.904-0.077 1.558-0.192 2-0.327 0.692-0.231 1.385-0.692 2.077-1.385 0.808-0.808 1.404-1.692 1.788-2.654 0.365-0.942 0.558-1.827 0.558-2.615z"></path>
</symbol>
<symbol id="android" viewBox="0 0 32 32">
<path d="M13.135 6.827c-0.404 0-0.731-0.346-0.731-0.75s0.327-0.75 0.731-0.75c0.423 0 0.75 0.346 0.75 0.75s-0.327 0.75-0.75 0.75zM21.25 6.827c-0.423 0-0.75-0.346-0.75-0.75s0.327-0.75 0.75-0.75c0.404 0 0.731 0.346 0.731 0.75s-0.327 0.75-0.731 0.75zM5.635 10.365c-1.096 0-1.981 0.885-1.981 1.962v8.269c0 1.096 0.885 1.981 1.981 1.981s1.962-0.885 1.962-1.981v-8.269c0-1.077-0.885-1.962-1.962-1.962zM26.019 10.731h-17.654v12.808c0 1.173 0.942 2.115 2.115 2.115h1.423l0.019 4.365c0 1.096 0.885 1.981 1.962 1.981 1.096 0 1.981-0.885 1.981-1.981v-4.365h2.654v4.365c0 1.096 0.885 1.981 1.981 1.981s1.981-0.885 1.981-1.981v-4.365h1.442c1.154 0 2.096-0.942 2.096-2.115v-12.808zM21.558 2.942l1.365-2.519c0.077-0.135 0.038-0.308-0.096-0.385-0.135-0.058-0.308-0.019-0.385 0.115l-1.385 2.538c-1.173-0.519-2.481-0.808-3.865-0.808s-2.692 0.288-3.865 0.808l-1.385-2.538c-0.077-0.135-0.25-0.173-0.385-0.115-0.135 0.077-0.173 0.25-0.096 0.385l1.365 2.519c-2.712 1.385-4.538 4.038-4.538 7.096h17.789c0-3.058-1.827-5.712-4.519-7.096zM30.731 12.327c0-1.096-0.885-1.962-1.981-1.962-1.077 0-1.962 0.865-1.962 1.962v8.269c0 1.096 0.885 1.981 1.962 1.981 1.096 0 1.981-0.885 1.981-1.981v-8.269z"></path>
</symbol>
<symbol id="filter" viewBox="0 0 32 32">
<path d="M29.625 2.146c-0.208-0.479-0.687-0.813-1.229-0.813h-26.667c-0.542 0-1.021 0.333-1.229 0.813-0.208 0.5-0.104 1.083 0.292 1.458l10.271 10.271v10.125c0 0.354 0.146 0.688 0.396 0.938l5.333 5.333c0.25 0.271 0.583 0.396 0.938 0.396 0.167 0 0.354-0.042 0.521-0.104 0.479-0.208 0.813-0.687 0.813-1.229v-15.458l10.271-10.271c0.396-0.375 0.5-0.958 0.292-1.458z"></path>
</symbol>
<symbol id="phone" viewBox="0 0 9 14">
 <path d="M5.02083 12.2C5.02083 12.6469 4.64583 13.0125 4.1875 13.0125C3.72917 13.0125 3.35417 12.6469 3.35417 12.2C3.35417 11.7531 3.72917 11.3875 4.1875 11.3875C4.64583 11.3875 5.02083 11.7531 5.02083 12.2ZM7.1875 10.575C7.1875 10.7477 7.03125 10.9 6.85417 10.9H1.52083C1.34375 10.9 1.1875 10.7477 1.1875 10.575V3.425C1.1875 3.25234 1.34375 3.1 1.52083 3.1H6.85417C7.03125 3.1 7.1875 3.25234 7.1875 3.425V10.575ZM5.1875 1.9625C5.1875 2.05391 5.11458 2.125 5.02083 2.125H3.35417C3.26042 2.125 3.1875 2.05391 3.1875 1.9625C3.1875 1.87109 3.26042 1.8 3.35417 1.8H5.02083C5.11458 1.8 5.1875 1.87109 5.1875 1.9625ZM8.1875 1.8C8.1875 1.08906 7.58333 0.5 6.85417 0.5H1.52083C0.791667 0.5 0.1875 1.08906 0.1875 1.8V12.2C0.1875 12.9109 0.791667 13.5 1.52083 13.5H6.85417C7.58333 13.5 8.1875 12.9109 8.1875 12.2V1.8Z"  />
</symbol>
<symbol id="search" viewBox="0 0 32 32">
<path d="M22.302 13.714c0 4.643-3.778 8.421-8.421 8.421s-8.421-3.778-8.421-8.421c0-4.643 3.778-8.421 8.421-8.421s8.421 3.778 8.421 8.421zM31.926 29.353c0-0.639-0.263-1.259-0.696-1.692l-6.447-6.447c1.523-2.199 2.331-4.831 2.331-7.5 0-7.312-5.921-13.233-13.233-13.233s-13.233 5.921-13.233 13.233c0 7.312 5.921 13.233 13.233 13.233 2.669 0 5.301-0.808 7.5-2.331l6.447 6.428c0.432 0.451 1.053 0.714 1.692 0.714 1.316 0 2.406-1.090 2.406-2.406z"></path>
</symbol>
<symbol id="close" viewBox="0 0 23 23">
 <path d="M22.7154 21.5337C23.0408 21.2083 23.0408 20.6691 22.7154 20.3437L3.09524 0.723528C2.76986 0.398147 2.23066 0.398147 1.90527 0.723529L0.715307 1.9135C0.389926 2.23888 0.389925 2.77808 0.715307 3.10346L20.3355 22.7236C20.6609 23.049 21.2001 23.049 21.5255 22.7236L22.7154 21.5337Z"  />
  <path d="M1.90495 22.7239C2.23033 23.0493 2.76954 23.0493 3.09492 22.7239L22.7151 3.1037C23.0405 2.77832 23.0405 2.23911 22.7151 1.91373L21.5251 0.723765C21.1998 0.398383 20.6606 0.398383 20.3352 0.723764L0.714984 20.3439C0.389603 20.6693 0.389601 21.2085 0.714983 21.5339L1.90495 22.7239Z"  />
</symbol>
<symbol id="sun" viewBox="0 0 15 15" >
 <path fill-rule="evenodd" clip-rule="evenodd" d="M7.50095 0.25C7.76244 0.25 7.97443 0.461986 7.97443 0.723485V1.95455C7.97443 2.21604 7.76244 2.42803 7.50095 2.42803C7.23945 2.42803 7.02746 2.21604 7.02746 1.95455V0.723485C7.02746 0.461986 7.23945 0.25 7.50095 0.25ZM2.37258 2.37258C2.55749 2.18767 2.85728 2.18767 3.04219 2.37258L3.91719 3.24758C4.1021 3.43249 4.1021 3.73228 3.91719 3.91719C3.73228 4.1021 3.43249 4.1021 3.24758 3.91719L2.37258 3.04219C2.18767 2.85728 2.18767 2.55749 2.37258 2.37258ZM12.6293 2.37258C12.8142 2.55749 12.8142 2.85728 12.6293 3.04219L11.7543 3.91719C11.5694 4.1021 11.2696 4.1021 11.0847 3.91719C10.8998 3.73228 10.8998 3.43249 11.0847 3.24758L11.9597 2.37258C12.1446 2.18767 12.4444 2.18767 12.6293 2.37258ZM5.52646 4.54592C6.11091 4.15541 6.79804 3.94697 7.50095 3.94697C8.44352 3.94697 9.34749 4.32141 10.014 4.98791C10.6805 5.65441 11.0549 6.55837 11.0549 7.50095C11.0549 8.20386 10.8465 8.89098 10.456 9.47543C10.0655 10.0599 9.5104 10.5154 8.861 10.7844C8.21159 11.0534 7.497 11.1238 6.8076 10.9866C6.1182 10.8495 5.48494 10.511 4.98791 10.014C4.49087 9.51696 4.15239 8.8837 4.01526 8.19429C3.87813 7.50489 3.94851 6.7903 4.2175 6.1409C4.48649 5.49149 4.94202 4.93644 5.52646 4.54592ZM0.25 7.50095C0.25 7.23945 0.461986 7.02746 0.723485 7.02746H1.95455C2.21604 7.02746 2.42803 7.23945 2.42803 7.50095C2.42803 7.76244 2.21604 7.97443 1.95455 7.97443H0.723485C0.461986 7.97443 0.25 7.76244 0.25 7.50095ZM12.572 7.50095C12.572 7.23945 12.784 7.02746 13.0455 7.02746H14.2765C14.538 7.02746 14.75 7.23945 14.75 7.50095C14.75 7.76244 14.538 7.97443 14.2765 7.97443H13.0455C12.784 7.97443 12.572 7.76244 12.572 7.50095ZM3.91719 11.0847C4.1021 11.2696 4.1021 11.5694 3.91719 11.7543L3.04219 12.6293C2.85728 12.8142 2.55749 12.8142 2.37258 12.6293C2.18767 12.4444 2.18767 12.1446 2.37258 11.9597L3.24758 11.0847C3.43249 10.8998 3.73228 10.8998 3.91719 11.0847ZM11.0847 11.0847C11.2696 10.8998 11.5694 10.8998 11.7543 11.0847L12.6293 11.9597C12.8142 12.1446 12.8142 12.4444 12.6293 12.6293C12.4444 12.8142 12.1446 12.8142 11.9597 12.6293L11.0847 11.7543C10.8998 11.5694 10.8998 11.2696 11.0847 11.0847ZM7.50095 12.572C7.76244 12.572 7.97443 12.784 7.97443 13.0455V14.2765C7.97443 14.538 7.76244 14.75 7.50095 14.75C7.23945 14.75 7.02746 14.538 7.02746 14.2765V13.0455C7.02746 12.784 7.23945 12.572 7.50095 12.572Z"/>
</symbol>
<symbol id="rss" viewBox="0 0 14 14">
<path d="M0 0V2.54545C6.31909 2.54545 11.4545 7.68091 11.4545 14H14C14 6.26818 7.73182 0 0 0ZM0 4.45455V7C3.86273 7 7 10.1373 7 14H9.54545C9.54545 8.73091 5.26909 4.45455 0 4.45455ZM1.90909 10.1818C1.40277 10.1818 0.917184 10.383 0.55916 10.741C0.201136 11.099 0 11.5846 0 12.0909C0 12.5972 0.201136 13.0828 0.55916 13.4408C0.917184 13.7989 1.40277 14 1.90909 14C2.41541 14 2.901 13.7989 3.25902 13.4408C3.61705 13.0828 3.81818 12.5972 3.81818 12.0909C3.81818 11.5846 3.61705 11.099 3.25902 10.741C2.901 10.383 2.41541 10.1818 1.90909 10.1818Z"/>
</symbol>
<symbol id="google" viewBox="0 0 21 17">
<path
fill-rule="evenodd"
clip-rule="evenodd"
d="M4.29316 0.526238C4.29469 0.386147 4.35201 0.252306 4.45268 0.153779C4.55335 0.0552514 4.68925 -7.79229e-06 4.83086 1.65771e-07H16.1691C16.3106 -0.000110488 16.4463 0.0551797 16.5467 0.153787C16.6471 0.252394 16.7039 0.3863 16.7048 0.526238V3.41882L20.6403 4.46606C20.9038 4.53399 21.0568 4.82411 20.9803 5.10688L18.6128 13.8487L18.6122 16.468C18.6122 16.6091 18.5556 16.7444 18.4547 16.8442C18.3539 16.944 18.2171 17 18.0745 17H2.92316C2.78056 17 2.6438 16.944 2.54296 16.8442C2.44212 16.7444 2.38547 16.6091 2.38547 16.468V11.8966L0.0346768 5.50749C-0.0662439 5.2325 0.0607343 4.93214 0.316759 4.84007L4.29316 3.40817V0.526238ZM12.4554 2.28808L15.9697 3.22323V0.725575H5.02818V3.14349L11.3986 0.849509C11.655 0.757438 11.947 0.906797 12.0484 1.18178L12.4554 2.28808ZM18.4572 4.75895C18.3564 4.65919 18.2196 4.60314 18.077 4.60314H13.3073L12.762 3.12112L20.2198 5.10564L18.6134 11.0371L18.6147 5.13511C18.6147 4.99402 18.558 4.85872 18.4572 4.75895ZM0.792283 5.44118L2.38547 9.77125V5.13511C2.38547 5.02657 2.419 4.92144 2.48039 4.8333L0.792283 5.44118ZM11.4248 1.61241L12.5253 4.60314H3.11952L11.4248 1.61241ZM15.812 9.07206C15.783 9.08395 15.7519 9.09007 15.7206 9.09007H11.1862V7.90952H15.7206C15.7839 7.90952 15.8446 7.93439 15.8893 7.97867C15.9341 8.02295 15.9592 8.08301 15.9592 8.14563V8.85355C15.9593 8.88459 15.9531 8.91534 15.9412 8.94403C15.9292 8.97273 15.9116 8.99881 15.8895 9.02077C15.8673 9.04274 15.841 9.06017 15.812 9.07206ZM15.8892 13.5068C15.8444 13.551 15.7838 13.5758 15.7206 13.5758H11.1862V12.3952H15.7206C15.7839 12.3952 15.8446 12.4201 15.8893 12.4644C15.9341 12.5087 15.9592 12.5687 15.9592 12.6313V13.3401C15.9591 13.4026 15.9339 13.4626 15.8892 13.5068ZM16.6053 11.2634C16.5605 11.3076 16.4998 11.3325 16.4365 11.3325H11.1862V10.152H16.4365C16.4998 10.1521 16.5604 10.177 16.6052 10.2212C16.6499 10.2655 16.6751 10.3255 16.6752 10.3881V11.0964C16.6752 11.159 16.65 11.2191 16.6053 11.2634ZM9.87088 10.8075C9.87021 10.6278 9.85513 10.4484 9.8258 10.271H7.12948V11.335H8.67348C8.54609 11.9836 7.97035 12.4537 7.12948 12.4537C6.19224 12.4537 5.43368 11.6693 5.43368 10.742C5.43368 9.81478 6.1939 9.03033 7.12948 9.03033C7.53782 9.02376 7.9324 9.17632 8.22803 9.45508L9.04532 8.64649C8.52679 8.16519 7.84003 7.90122 7.12907 7.90993C6.75011 7.90542 6.37403 7.97537 6.0226 8.11573C5.67118 8.25609 5.3514 8.46406 5.08182 8.72758C4.81223 8.99111 4.5982 9.30496 4.45212 9.65093C4.30604 9.9969 4.23082 10.3681 4.23082 10.7431C4.23082 11.118 4.30604 11.4892 4.45212 11.8352C4.5982 12.1812 4.81223 12.495 5.08182 12.7585C5.3514 13.0221 5.67118 13.23 6.0226 13.3704C6.37403 13.5107 6.75011 13.5807 7.12907 13.5762C8.78351 13.5762 9.87088 12.4259 9.87088 10.8075Z"/>
</symbol>
<symbol id="youtube" viewBox="0 0 18 12">
<path fill-rule="evenodd"
clip-rule="evenodd"
d="M15.2103 0.358258C15.9451 0.555387 16.5237 1.13623 16.7201 1.87384C17.0769 3.21071 17.0769 6 17.0769 6C17.0769 6 17.0769 8.78926 16.7201 10.1262C16.5237 10.8638 15.9451 11.4446 15.2103 11.6418C13.8786 12 8.53846 12 8.53846 12C8.53846 12 3.19836 12 1.86661 11.6418C1.13189 11.4446 0.553211 10.8638 0.356843 10.1262C0 8.78926 0 6 0 6C0 6 0 3.21071 0.356843 1.87384C0.553211 1.13623 1.13189 0.555387 1.86661 0.358258C3.19836 1.78814e-07 8.53846 0 8.53846 0C8.53846 0 13.8786 1.78814e-07 15.2103 0.358258ZM11.2533 6.00012L6.79004 8.53246V3.46754L11.2533 6.00012Z"/>
</symbol>
<symbol id="instagram" viewBox="0 0 14 14">
<path d="M4.10093 0.0489565C3.35613 0.0840966 2.8475 0.202957 2.40286 0.377678C1.94267 0.557018 1.55263 0.797679 1.16454 1.18716C0.776459 1.57664 0.537477 1.96696 0.359395 2.42784C0.187053 2.87347 0.0702921 3.38251 0.0373917 4.12773C0.0044914 4.87295 -0.00278868 5.11249 0.000851359 7.01342C0.0044914 8.91435 0.0128915 9.15263 0.0490118 9.89939C0.0845722 10.6441 0.203013 11.1525 0.377735 11.5973C0.557357 12.0575 0.797739 12.4474 1.18736 12.8356C1.57699 13.2238 1.96703 13.4623 2.42904 13.6406C2.87424 13.8127 3.38343 13.93 4.12851 13.9626C4.8736 13.9952 5.11342 14.0028 7.0138 13.9992C8.91418 13.9955 9.15344 13.9871 9.90007 13.9517C10.6467 13.9163 11.1525 13.797 11.5974 13.6231C12.0576 13.4431 12.4478 13.2031 12.8358 12.8134C13.2237 12.4236 13.4625 12.033 13.6405 11.5718C13.813 11.1266 13.9302 10.6175 13.9625 9.87293C13.9951 9.12575 14.0028 8.88719 13.9992 6.98654C13.9955 5.08589 13.987 4.84761 13.9516 4.10113C13.9162 3.35465 13.7976 2.84771 13.623 2.40264C13.4431 1.94246 13.203 1.55284 12.8135 1.16434C12.424 0.775839 12.0331 0.537138 11.5721 0.359618C11.1266 0.187277 10.6177 0.0698166 9.87263 0.0376165C9.12754 0.00541635 8.88772 -0.00284368 6.98664 0.000796331C5.08556 0.00443634 4.84756 0.0125564 4.10093 0.0489565ZM4.18269 12.7033C3.50019 12.6736 3.1296 12.5602 2.88264 12.4653C2.5556 12.3393 2.32263 12.187 2.07651 11.9433C1.83039 11.6995 1.67919 11.4657 1.55151 11.1394C1.45561 10.8924 1.3401 10.5223 1.30818 9.83975C1.27346 9.10209 1.26618 8.88061 1.26212 7.01174C1.25806 5.14287 1.2652 4.92167 1.29754 4.18373C1.32666 3.50179 1.44077 3.13079 1.53555 2.88397C1.66155 2.55651 1.81331 2.32396 2.05761 2.07798C2.30191 1.832 2.53502 1.68052 2.86164 1.55284C3.10832 1.45652 3.47849 1.342 4.16071 1.30952C4.89894 1.27452 5.12014 1.26752 6.98874 1.26346C8.85734 1.2594 9.0791 1.2664 9.81761 1.29888C10.4996 1.32856 10.8707 1.44154 11.1172 1.53688C11.4444 1.66288 11.6772 1.81422 11.9232 2.05894C12.1692 2.30366 12.3208 2.53593 12.4485 2.86325C12.545 3.10923 12.6595 3.47925 12.6917 4.16189C12.7268 4.90011 12.7348 5.12145 12.7382 6.9899C12.7415 8.85835 12.735 9.08025 12.7026 9.81791C12.6728 10.5004 12.5597 10.8711 12.4646 11.1184C12.3386 11.4453 12.1867 11.6784 11.9423 11.9242C11.6978 12.1701 11.465 12.3215 11.1382 12.4492C10.8918 12.5454 10.5213 12.6602 9.83959 12.6927C9.10136 12.7274 8.88016 12.7347 7.01086 12.7387C5.14156 12.7428 4.92106 12.7352 4.18283 12.7033M9.88929 3.25875C9.88957 3.4249 9.93911 3.58723 10.0317 3.72522C10.1242 3.86321 10.2556 3.97066 10.4092 4.03397C10.5628 4.09728 10.7318 4.11362 10.8947 4.08091C11.0576 4.04821 11.2071 3.96793 11.3244 3.85023C11.4416 3.73253 11.5214 3.58269 11.5535 3.41968C11.5856 3.25666 11.5686 3.08778 11.5047 2.9344C11.4409 2.78103 11.3329 2.65003 11.1946 2.558C11.0563 2.46596 10.8938 2.41701 10.7276 2.41734C10.5049 2.41779 10.2914 2.50668 10.1342 2.66446C9.97703 2.82225 9.88892 3.03601 9.88929 3.25875ZM3.40583 7.00698C3.40975 8.99219 5.022 10.5979 7.0068 10.5941C8.9916 10.5903 10.5984 8.97819 10.5946 6.99298C10.5908 5.00777 8.97816 3.40169 6.99308 3.40561C5.008 3.40953 3.40205 5.02205 3.40583 7.00698ZM4.66668 7.00446C4.66577 6.54296 4.80172 6.09156 5.05736 5.70733C5.313 5.3231 5.67684 5.0233 6.10286 4.84585C6.52888 4.6684 6.99796 4.62126 7.45077 4.7104C7.90358 4.79953 8.3198 5.02094 8.64677 5.34663C8.97375 5.67231 9.19681 6.08764 9.28774 6.54009C9.37867 6.99255 9.33339 7.4618 9.15763 7.88852C8.98186 8.31524 8.68351 8.68026 8.30029 8.93741C7.91707 9.19457 7.4662 9.33231 7.0047 9.33323C6.69827 9.33387 6.3947 9.27414 6.11135 9.15745C5.828 9.04076 5.57041 8.8694 5.3533 8.65315C5.13619 8.43689 4.9638 8.17999 4.84599 7.8971C4.72818 7.61422 4.66725 7.3109 4.66668 7.00446Z"/>
</symbol>
<symbol id="twitter" viewBox="0 0 15 12">
<path d="M14.3568 1.45598C13.8449 1.67666 13.2888 1.83555 12.715 1.89733C13.3064 1.54425 13.7566 0.988142 13.9684 0.326109C13.4212 0.652711 12.8033 0.891044 12.1589 1.01462C11.6381 0.458515 10.8966 0.114258 10.0757 0.114258C8.49564 0.114258 7.22453 1.39419 7.22453 2.96542C7.22453 3.18609 7.25102 3.40677 7.29515 3.61862C4.92949 3.49504 2.81981 2.36517 1.41629 0.635058C1.16914 1.05876 1.0279 1.54425 1.0279 2.07388C1.0279 3.06251 1.53105 3.9364 2.29901 4.44837C1.83117 4.43072 1.38981 4.29831 1.01025 4.08646C1.01025 4.09529 1.01025 4.11294 1.01025 4.12177C1.01025 5.50762 1.99006 6.65515 3.29647 6.91996C3.05814 6.98175 2.80215 7.01706 2.54617 7.01706C2.3608 7.01706 2.18425 6.99941 2.00771 6.97292C2.36962 8.1028 3.42005 8.92372 4.6735 8.9502C3.69369 9.71816 2.46672 10.1683 1.13383 10.1683C0.895495 10.1683 0.674817 10.1595 0.445312 10.133C1.70759 10.9451 3.2082 11.413 4.82356 11.413C10.0669 11.413 12.9357 7.07002 12.9357 3.30085C12.9357 3.17727 12.9357 3.05369 12.9268 2.93011C13.483 2.52406 13.9684 2.02091 14.3568 1.45598Z"/>
</symbol>
<symbol id="facebook" viewBox="0 0 8 16">
<path d="M7.87589 0.525359C7.63756 0.490051 6.81664 0.419434 5.86331 0.419434C3.86838 0.419434 2.50018 1.63758 2.50018 3.87083V5.79515H0.249268V8.40797H2.50018V15.1077H5.20127V8.40797H7.44336L7.78762 5.79515H5.20127V4.12682C5.20127 3.37652 5.4043 2.85572 6.49003 2.85572H7.87589V0.525359Z"/>
</symbol>
<symbol id="download" viewBox="0 0 36 32">
<path d="M34.292 21.58c-0.383-0.383-0.848-0.574-1.395-0.574h-9.518l-2.79 2.79c-0.793 0.766-1.723 1.149-2.79 1.149s-1.997-0.383-2.79-1.149l-2.769-2.79h-9.539c-0.547 0-1.012 0.192-1.395 0.574s-0.574 0.848-0.574 1.395v6.564c0 0.547 0.191 1.012 0.574 1.395s0.848 0.574 1.395 0.574h30.195c0.547 0 1.012-0.191 1.395-0.574s0.575-0.848 0.575-1.395v-6.564c0-0.547-0.191-1.012-0.575-1.395zM26.6 28.493c-0.26 0.26-0.568 0.39-0.924 0.39s-0.663-0.13-0.923-0.39c-0.26-0.26-0.389-0.567-0.389-0.923s0.13-0.663 0.389-0.923c0.26-0.26 0.567-0.39 0.923-0.39s0.663 0.13 0.924 0.39c0.26 0.259 0.39 0.567 0.39 0.923s-0.13 0.663-0.39 0.923zM31.851 28.493c-0.26 0.26-0.567 0.39-0.923 0.39s-0.663-0.13-0.923-0.39c-0.26-0.26-0.389-0.567-0.389-0.923s0.13-0.663 0.389-0.923c0.26-0.26 0.567-0.39 0.923-0.39s0.663 0.13 0.923 0.39c0.26 0.259 0.39 0.567 0.39 0.923s-0.13 0.663-0.39 0.923z"></path>
<path d="M16.877 21.929c0.246 0.26 0.554 0.39 0.923 0.39s0.677-0.13 0.923-0.39l9.19-9.19c0.424-0.397 0.52-0.875 0.287-1.436-0.232-0.533-0.636-0.8-1.21-0.8h-5.251v-9.19c0-0.355-0.13-0.663-0.39-0.923s-0.568-0.39-0.923-0.39h-5.252c-0.355 0-0.663 0.13-0.923 0.39s-0.39 0.567-0.39 0.923v9.19h-5.251c-0.575 0-0.978 0.267-1.21 0.8-0.232 0.56-0.137 1.039 0.287 1.436l9.19 9.19z"></path>
</symbol>
</defs>
</svg>
